<svg aria-hidden="true" style="width:0;height:0;position:absolute;overflow:hidden" xmlns="http://www.w3.org/2000/svg"><defs><symbol id="icon-slider-btn" viewBox="0 0 35 32"><path d="M32.64 15.4a1.539 1.539 0 0 0-.128-2.223l-.002-.002L17.737.426a1.849 1.849 0 0 0-1.184-.425c-.466 0-.892.171-1.218.454l.002-.002L.516 13.856a1.53 1.53 0 0 0-.072 2.222l.373.381c.613.635 1.611.709 2.224.168l1.107-.979v14.328a1.6 1.6 0 0 0 1.6 1.589H11.55a1.6 1.6 0 0 0 1.6-1.589V19.951h7.371v10.024c-.013.88.624 1.589 1.515 1.589h6.134a1.6 1.6 0 0 0 1.6-1.589V15.849l.685.592c.376.325 1.168.064 1.765-.587l.421-.453z"/></symbol><symbol id="icon-order-price" viewBox="0 0 63 32"><path d="M8.649 17.805c-.429 0-.811-.074-1.146-.221a1.963 1.963 0 0 1-.795-.614 1.645 1.645 0 0 1-.318-.919h.818a.964.964 0 0 0 .221.555c.13.154.3.273.51.357s.443.127.698.127c.286 0 .539-.05.76-.149s.394-.238.519-.416c.126-.177.188-.383.188-.617 0-.245-.061-.46-.182-.646-.121-.188-.299-.335-.533-.442s-.519-.159-.857-.159H8v-.714h.532c.264 0 .496-.048.695-.143a1.077 1.077 0 0 0 .643-1.013c0-.225-.05-.421-.149-.588s-.24-.297-.422-.39a1.368 1.368 0 0 0-.636-.14c-.229 0-.446.042-.649.127a1.212 1.212 0 0 0-.494.36.938.938 0 0 0-.208.565h-.779c.013-.348.118-.654.315-.916.197-.264.455-.47.773-.617.32-.147.672-.221 1.055-.221.411 0 .764.083 1.058.25.294.165.521.382.679.653s.237.563.237.877c0 .374-.098.694-.295.958-.195.264-.46.447-.795.549v.052c.42.069.748.248.984.536.236.286.354.64.354 1.062 0 .362-.098.686-.295.974-.195.286-.461.511-.799.675s-.722.247-1.153.247zm3.575-.091v-.584l2.195-2.403c.258-.281.47-.526.636-.734a2.7 2.7 0 0 0 .37-.591c.082-.186.123-.381.123-.584a1.075 1.075 0 0 0-.624-1.003 1.475 1.475 0 0 0-.649-.14c-.255 0-.478.053-.669.159-.188.104-.334.25-.438.438a1.368 1.368 0 0 0-.153.662h-.766c0-.39.09-.732.27-1.026s.424-.524.734-.688a2.207 2.207 0 0 1 1.049-.247c.39 0 .735.082 1.036.247s.537.386.708.666c.171.279.256.59.256.932 0 .245-.044.484-.133.718-.087.232-.238.49-.455.776-.214.284-.512.63-.893 1.039l-1.493 1.597V17h3.091v.714h-4.195zm10.224-6.74c.273.002.545.054.818.156s.522.271.747.507c.225.234.406.553.542.958s.205.912.205 1.523c0 .591-.056 1.116-.169 1.575-.11.457-.271.842-.48 1.156a2.125 2.125 0 0 1-.76.714 2.066 2.066 0 0 1-1.006.244 2.19 2.19 0 0 1-.997-.221 1.952 1.952 0 0 1-.714-.62 2.16 2.16 0 0 1-.354-.925h.792c.071.305.213.557.425.756.214.197.497.295.847.295.513 0 .918-.224 1.214-.672.299-.448.448-1.081.448-1.899h-.052c-.121.182-.265.339-.432.471a1.902 1.902 0 0 1-1.204.412c-.381 0-.73-.094-1.049-.282a2.147 2.147 0 0 1-.76-.783 2.284 2.284 0 0 1-.282-1.143c0-.407.091-.779.273-1.117.184-.34.442-.61.773-.812.333-.201.725-.299 1.175-.292zm0 .714c-.273 0-.518.068-.737.205a1.47 1.47 0 0 0-.516.545c-.126.227-.188.479-.188.757s.061.529.182.756c.123.225.291.405.503.539.214.132.458.198.73.198a1.384 1.384 0 0 0 1.039-.454c.134-.143.239-.304.315-.484a1.496 1.496 0 0 0-.074-1.299 1.493 1.493 0 0 0-.513-.552 1.324 1.324 0 0 0-.74-.211zm5.705-.714c.273.002.545.054.818.156s.521.271.747.507c.225.234.406.553.542.958s.205.912.205 1.523c0 .591-.056 1.116-.169 1.575-.11.457-.271.842-.481 1.156a2.125 2.125 0 0 1-.76.714 2.066 2.066 0 0 1-1.006.244 2.19 2.19 0 0 1-.997-.221 1.952 1.952 0 0 1-.714-.62 2.16 2.16 0 0 1-.354-.925h.792c.071.305.213.557.425.756.214.197.497.295.847.295.513 0 .918-.224 1.214-.672.299-.448.448-1.081.448-1.899h-.052c-.121.182-.265.339-.432.471s-.352.234-.555.305-.42.107-.649.107c-.381 0-.73-.094-1.049-.282a2.147 2.147 0 0 1-.76-.783 2.284 2.284 0 0 1-.282-1.143c0-.407.091-.779.273-1.117.184-.34.442-.61.773-.812.333-.201.725-.299 1.175-.292zm0 .714c-.273 0-.518.068-.737.205a1.47 1.47 0 0 0-.516.545c-.126.227-.188.479-.188.757s.061.529.182.756c.123.225.291.405.503.539.214.132.458.198.73.198a1.384 1.384 0 0 0 1.039-.454c.134-.143.239-.304.315-.484a1.496 1.496 0 0 0-.075-1.299 1.493 1.493 0 0 0-.513-.552 1.326 1.326 0 0 0-.74-.211zm5.706-.714c.273.002.545.054.818.156s.522.271.747.507c.225.234.406.553.542.958s.205.912.205 1.523c0 .591-.056 1.116-.169 1.575a3.587 3.587 0 0 1-.481 1.156 2.125 2.125 0 0 1-.76.714 2.067 2.067 0 0 1-1.007.244 2.19 2.19 0 0 1-.997-.221 1.952 1.952 0 0 1-.714-.62 2.16 2.16 0 0 1-.354-.925h.792c.071.305.213.557.425.756.214.197.497.295.847.295.513 0 .918-.224 1.214-.672.299-.448.448-1.081.448-1.899h-.052c-.121.182-.265.339-.432.471a1.902 1.902 0 0 1-1.204.412c-.381 0-.731-.094-1.049-.282a2.147 2.147 0 0 1-.76-.783 2.275 2.275 0 0 1-.283-1.143c0-.407.091-.779.273-1.117.184-.34.441-.61.773-.812.333-.201.725-.299 1.175-.292zm0 .714c-.273 0-.519.068-.737.205a1.47 1.47 0 0 0-.516.545c-.125.227-.188.479-.188.757s.061.529.182.756c.123.225.291.405.503.539.214.132.458.198.731.198a1.387 1.387 0 0 0 1.039-.454c.134-.143.239-.304.315-.484a1.496 1.496 0 0 0-.074-1.299 1.493 1.493 0 0 0-.513-.552 1.326 1.326 0 0 0-.74-.211zm9.251 1.039v.714h-2.312v4.273h-.766v-4.987h3.078zm1.118 6.857v-6.857h.74v.792h.091c.056-.087.134-.197.234-.331a1.38 1.38 0 0 1 .435-.364c.191-.108.448-.162.773-.162.42 0 .79.105 1.11.315s.57.508.75.893c.18.385.269.84.269 1.364 0 .528-.09.986-.269 1.373-.18.385-.429.684-.747.896-.318.21-.685.315-1.101.315-.32 0-.577-.053-.769-.159a1.413 1.413 0 0 1-.445-.367 4.86 4.86 0 0 1-.24-.344h-.065v2.636h-.766zm.753-4.363c0 .377.055.709.165.997.111.286.272.51.484.672.212.16.472.24.779.24.32 0 .587-.084.802-.253.217-.171.379-.4.487-.688.11-.29.166-.613.166-.968 0-.351-.054-.667-.163-.948a1.456 1.456 0 0 0-.484-.672c-.214-.167-.484-.25-.808-.25-.312 0-.574.079-.786.237a1.427 1.427 0 0 0-.481.656 2.7 2.7 0 0 0-.162.977zm8.156-.351v.714h-2.753v-.714h2.753zm-2.571-2.143v4.987H49.8v-4.987h.766zm3.156 0v4.987h-.766v-4.987h.766zm1.957 5.039c-.16 0-.298-.057-.412-.172s-.172-.252-.172-.412.057-.298.172-.412c.115-.115.252-.172.412-.172s.298.057.412.172a.561.561 0 0 1 .172.412.6.6 0 0 1-.292.506.557.557 0 0 1-.292.078z"/></symbol></defs></svg>