<svg aria-hidden="true" style="position: absolute; width: 0; height: 0; overflow: hidden;" version="1.1" xmlns="http://www.w3.org/2000/svg" xmlns:xlink="http://www.w3.org/1999/xlink">
<defs>
<symbol id="icon-slider-btn" viewBox="0 0 35 32">
<path  d="M32.64 15.4c0.256-0.274 0.413-0.644 0.413-1.050 0-0.47-0.21-0.89-0.541-1.173l-0.002-0.002-14.773-12.749c-0.319-0.265-0.733-0.425-1.184-0.425-0.466 0-0.892 0.171-1.218 0.454l0.002-0.002-14.821 13.403c-0.316 0.282-0.515 0.69-0.515 1.145 0 0.42 0.169 0.8 0.443 1.077l-0-0 0.373 0.381c0.613 0.635 1.611 0.709 2.224 0.168l1.107-0.979v14.328c0.006 0.879 0.72 1.589 1.6 1.589 0.005 0 0.009-0 0.014-0h5.775c0.004 0 0.009 0 0.013 0 0.88 0 1.594-0.71 1.6-1.589v-10.025h7.371v10.024c-0.013 0.88 0.624 1.589 1.515 1.589h6.123c0.003 0 0.007 0 0.011 0 0.88 0 1.594-0.71 1.6-1.589v-14.126l0.685 0.592c0.376 0.325 1.168 0.064 1.765-0.587l0.421-0.453z"></path>
</symbol>
<symbol id="icon-order-price" viewBox="0 0 63 32">
<path d="M8.649 17.805c-0.429 0-0.811-0.074-1.146-0.221-0.333-0.147-0.598-0.352-0.795-0.614-0.195-0.264-0.301-0.57-0.318-0.919h0.818c0.017 0.214 0.091 0.399 0.221 0.555 0.13 0.154 0.3 0.273 0.51 0.357s0.443 0.127 0.698 0.127c0.286 0 0.539-0.050 0.76-0.149s0.394-0.238 0.519-0.416c0.126-0.177 0.188-0.383 0.188-0.617 0-0.245-0.061-0.46-0.182-0.646-0.121-0.188-0.299-0.335-0.533-0.442s-0.519-0.159-0.857-0.159h-0.532v-0.714h0.532c0.264 0 0.496-0.048 0.695-0.143 0.201-0.095 0.358-0.229 0.471-0.403 0.115-0.173 0.172-0.377 0.172-0.61 0-0.225-0.050-0.421-0.149-0.588s-0.24-0.297-0.422-0.39c-0.18-0.093-0.392-0.14-0.636-0.14-0.229 0-0.446 0.042-0.649 0.127-0.201 0.082-0.366 0.202-0.494 0.36-0.128 0.156-0.197 0.344-0.208 0.565h-0.779c0.013-0.348 0.118-0.654 0.315-0.916 0.197-0.264 0.455-0.47 0.773-0.617 0.32-0.147 0.672-0.221 1.055-0.221 0.411 0 0.764 0.083 1.058 0.25 0.294 0.165 0.521 0.382 0.679 0.653s0.237 0.563 0.237 0.877c0 0.374-0.098 0.694-0.295 0.958-0.195 0.264-0.46 0.447-0.795 0.549v0.052c0.42 0.069 0.748 0.248 0.984 0.536 0.236 0.286 0.354 0.64 0.354 1.062 0 0.362-0.098 0.686-0.295 0.974-0.195 0.286-0.461 0.511-0.799 0.675s-0.722 0.247-1.153 0.247zM12.224 17.714v-0.584l2.195-2.403c0.258-0.281 0.47-0.526 0.636-0.734 0.167-0.21 0.29-0.407 0.37-0.591 0.082-0.186 0.123-0.381 0.123-0.584 0-0.234-0.056-0.436-0.169-0.607-0.11-0.171-0.262-0.303-0.455-0.396s-0.409-0.14-0.649-0.14c-0.255 0-0.478 0.053-0.669 0.159-0.188 0.104-0.334 0.25-0.438 0.438-0.102 0.188-0.153 0.409-0.153 0.662h-0.766c0-0.39 0.090-0.732 0.27-1.026s0.424-0.524 0.734-0.688c0.312-0.165 0.661-0.247 1.049-0.247 0.39 0 0.735 0.082 1.036 0.247s0.537 0.386 0.708 0.666c0.171 0.279 0.256 0.59 0.256 0.932 0 0.245-0.044 0.484-0.133 0.718-0.087 0.232-0.238 0.49-0.455 0.776-0.214 0.284-0.512 0.63-0.893 1.039l-1.493 1.597v0.052h3.091v0.714h-4.195zM22.448 10.974c0.273 0.002 0.545 0.054 0.818 0.156s0.522 0.271 0.747 0.507c0.225 0.234 0.406 0.553 0.542 0.958s0.205 0.912 0.205 1.523c0 0.591-0.056 1.116-0.169 1.575-0.11 0.457-0.271 0.842-0.48 1.156-0.208 0.314-0.461 0.552-0.76 0.714-0.297 0.162-0.632 0.244-1.006 0.244-0.372 0-0.705-0.074-0.997-0.221-0.29-0.149-0.528-0.356-0.714-0.62-0.184-0.266-0.302-0.575-0.354-0.925h0.792c0.071 0.305 0.213 0.557 0.425 0.756 0.214 0.197 0.497 0.295 0.847 0.295 0.513 0 0.918-0.224 1.214-0.672 0.299-0.448 0.448-1.081 0.448-1.899h-0.052c-0.121 0.182-0.265 0.339-0.432 0.471s-0.352 0.234-0.555 0.305c-0.203 0.071-0.42 0.107-0.649 0.107-0.381 0-0.73-0.094-1.049-0.282-0.316-0.191-0.569-0.451-0.76-0.783-0.188-0.333-0.282-0.714-0.282-1.143 0-0.407 0.091-0.779 0.273-1.117 0.184-0.34 0.442-0.61 0.773-0.812 0.333-0.201 0.725-0.299 1.175-0.292zM22.448 11.688c-0.273 0-0.518 0.068-0.737 0.205-0.216 0.134-0.389 0.316-0.516 0.545-0.126 0.227-0.188 0.479-0.188 0.757s0.061 0.529 0.182 0.756c0.123 0.225 0.291 0.405 0.503 0.539 0.214 0.132 0.458 0.198 0.73 0.198 0.206 0 0.397-0.040 0.575-0.12 0.177-0.082 0.332-0.194 0.464-0.334 0.134-0.143 0.239-0.304 0.315-0.484 0.076-0.182 0.114-0.371 0.114-0.568 0-0.26-0.063-0.503-0.188-0.731-0.123-0.227-0.294-0.411-0.513-0.552-0.216-0.141-0.463-0.211-0.74-0.211zM28.153 10.974c0.273 0.002 0.545 0.054 0.818 0.156s0.521 0.271 0.747 0.507c0.225 0.234 0.406 0.553 0.542 0.958s0.205 0.912 0.205 1.523c0 0.591-0.056 1.116-0.169 1.575-0.11 0.457-0.271 0.842-0.481 1.156-0.208 0.314-0.461 0.552-0.76 0.714-0.297 0.162-0.632 0.244-1.006 0.244-0.372 0-0.705-0.074-0.997-0.221-0.29-0.149-0.528-0.356-0.714-0.62-0.184-0.266-0.302-0.575-0.354-0.925h0.792c0.071 0.305 0.213 0.557 0.425 0.756 0.214 0.197 0.497 0.295 0.847 0.295 0.513 0 0.918-0.224 1.214-0.672 0.299-0.448 0.448-1.081 0.448-1.899h-0.052c-0.121 0.182-0.265 0.339-0.432 0.471s-0.352 0.234-0.555 0.305-0.42 0.107-0.649 0.107c-0.381 0-0.73-0.094-1.049-0.282-0.316-0.191-0.569-0.451-0.76-0.783-0.188-0.333-0.282-0.714-0.282-1.143 0-0.407 0.091-0.779 0.273-1.117 0.184-0.34 0.442-0.61 0.773-0.812 0.333-0.201 0.725-0.299 1.175-0.292zM28.153 11.688c-0.273 0-0.518 0.068-0.737 0.205-0.216 0.134-0.389 0.316-0.516 0.545-0.126 0.227-0.188 0.479-0.188 0.757s0.061 0.529 0.182 0.756c0.123 0.225 0.291 0.405 0.503 0.539 0.214 0.132 0.458 0.198 0.73 0.198 0.206 0 0.397-0.040 0.575-0.12 0.178-0.082 0.332-0.194 0.464-0.334 0.134-0.143 0.239-0.304 0.315-0.484 0.076-0.182 0.113-0.371 0.113-0.568 0-0.26-0.063-0.503-0.188-0.731-0.123-0.227-0.294-0.411-0.513-0.552-0.217-0.141-0.463-0.211-0.74-0.211zM33.859 10.974c0.273 0.002 0.545 0.054 0.818 0.156s0.522 0.271 0.747 0.507c0.225 0.234 0.406 0.553 0.542 0.958s0.205 0.912 0.205 1.523c0 0.591-0.056 1.116-0.169 1.575-0.111 0.457-0.271 0.842-0.481 1.156-0.208 0.314-0.461 0.552-0.76 0.714-0.297 0.162-0.632 0.244-1.007 0.244-0.372 0-0.705-0.074-0.997-0.221-0.29-0.149-0.528-0.356-0.714-0.62-0.184-0.266-0.302-0.575-0.354-0.925h0.792c0.071 0.305 0.213 0.557 0.425 0.756 0.214 0.197 0.497 0.295 0.847 0.295 0.513 0 0.918-0.224 1.214-0.672 0.299-0.448 0.448-1.081 0.448-1.899h-0.052c-0.121 0.182-0.265 0.339-0.432 0.471s-0.352 0.234-0.555 0.305c-0.203 0.071-0.42 0.107-0.649 0.107-0.381 0-0.731-0.094-1.049-0.282-0.316-0.191-0.569-0.451-0.76-0.783-0.189-0.333-0.283-0.714-0.283-1.143 0-0.407 0.091-0.779 0.273-1.117 0.184-0.34 0.441-0.61 0.773-0.812 0.333-0.201 0.725-0.299 1.175-0.292zM33.859 11.688c-0.273 0-0.519 0.068-0.737 0.205-0.216 0.134-0.389 0.316-0.516 0.545-0.125 0.227-0.188 0.479-0.188 0.757s0.061 0.529 0.182 0.756c0.123 0.225 0.291 0.405 0.503 0.539 0.214 0.132 0.458 0.198 0.731 0.198 0.205 0 0.397-0.040 0.575-0.12 0.177-0.082 0.332-0.194 0.464-0.334 0.134-0.143 0.239-0.304 0.315-0.484 0.076-0.182 0.114-0.371 0.114-0.568 0-0.26-0.063-0.503-0.188-0.731-0.123-0.227-0.294-0.411-0.513-0.552-0.217-0.141-0.463-0.211-0.74-0.211zM43.11 12.727v0.714h-2.312v4.273h-0.766v-4.987h3.078zM44.228 19.584v-6.857h0.74v0.792h0.091c0.056-0.087 0.134-0.197 0.234-0.331 0.102-0.136 0.247-0.258 0.435-0.364 0.191-0.108 0.448-0.162 0.773-0.162 0.42 0 0.79 0.105 1.11 0.315s0.57 0.508 0.75 0.893c0.18 0.385 0.269 0.84 0.269 1.364 0 0.528-0.090 0.986-0.269 1.373-0.18 0.385-0.429 0.684-0.747 0.896-0.318 0.21-0.685 0.315-1.101 0.315-0.32 0-0.577-0.053-0.769-0.159-0.193-0.108-0.341-0.23-0.445-0.367-0.104-0.139-0.184-0.253-0.24-0.344h-0.065v2.636h-0.766zM44.981 15.221c0 0.377 0.055 0.709 0.165 0.997 0.111 0.286 0.272 0.51 0.484 0.672 0.212 0.16 0.472 0.24 0.779 0.24 0.32 0 0.587-0.084 0.802-0.253 0.217-0.171 0.379-0.4 0.487-0.688 0.11-0.29 0.166-0.613 0.166-0.968 0-0.351-0.054-0.667-0.163-0.948-0.106-0.284-0.267-0.508-0.484-0.672-0.214-0.167-0.484-0.25-0.808-0.25-0.312 0-0.574 0.079-0.786 0.237-0.212 0.156-0.372 0.374-0.481 0.656-0.108 0.279-0.162 0.605-0.162 0.977zM53.137 14.87v0.714h-2.753v-0.714h2.753zM50.566 12.727v4.987h-0.766v-4.987h0.766zM53.722 12.727v4.987h-0.766v-4.987h0.766zM55.679 17.766c-0.16 0-0.298-0.057-0.412-0.172s-0.172-0.252-0.172-0.412 0.057-0.298 0.172-0.412c0.115-0.115 0.252-0.172 0.412-0.172s0.298 0.057 0.412 0.172c0.115 0.115 0.172 0.252 0.172 0.412 0 0.106-0.027 0.203-0.081 0.292-0.052 0.089-0.122 0.16-0.211 0.214-0.087 0.052-0.184 0.078-0.292 0.078z"></path>
</symbol>
</defs>
</svg>
